G04 #@! TF.FileFunction,Legend,Top*
%FSLAX46Y46*%
G04 Gerber Fmt 4.6, Leading zero omitted, Abs format (unit mm)*
G04 Created by KiCad (PCBNEW 4.0.6) date 11/27/17 20:56:59*
%MOMM*%
%LPD*%
G01*
G04 APERTURE LIST*
%ADD10C,0.100000*%
%ADD11C,0.150000*%
%ADD12C,0.300000*%
%ADD13C,0.120000*%
%ADD14C,0.125000*%
G04 APERTURE END LIST*
D10*
D11*
X197866000Y-107061000D02*
X249682000Y-107061000D01*
X197866000Y-107823000D02*
X197866000Y-107061000D01*
X249682000Y-137668000D02*
X249682000Y-107061000D01*
X197866000Y-137668000D02*
X249682000Y-137668000D01*
X197866000Y-107823000D02*
X197866000Y-137668000D01*
D12*
X204117858Y-110589143D02*
X204332144Y-110660571D01*
X204689287Y-110660571D01*
X204832144Y-110589143D01*
X204903573Y-110517714D01*
X204975001Y-110374857D01*
X204975001Y-110232000D01*
X204903573Y-110089143D01*
X204832144Y-110017714D01*
X204689287Y-109946286D01*
X204403573Y-109874857D01*
X204260715Y-109803429D01*
X204189287Y-109732000D01*
X204117858Y-109589143D01*
X204117858Y-109446286D01*
X204189287Y-109303429D01*
X204260715Y-109232000D01*
X204403573Y-109160571D01*
X204760715Y-109160571D01*
X204975001Y-109232000D01*
X206189286Y-110589143D02*
X206046429Y-110660571D01*
X205760715Y-110660571D01*
X205617858Y-110589143D01*
X205546429Y-110446286D01*
X205546429Y-109874857D01*
X205617858Y-109732000D01*
X205760715Y-109660571D01*
X206046429Y-109660571D01*
X206189286Y-109732000D01*
X206260715Y-109874857D01*
X206260715Y-110017714D01*
X205546429Y-110160571D01*
X206903572Y-109660571D02*
X206903572Y-110660571D01*
X206903572Y-109803429D02*
X206975000Y-109732000D01*
X207117858Y-109660571D01*
X207332143Y-109660571D01*
X207475000Y-109732000D01*
X207546429Y-109874857D01*
X207546429Y-110660571D01*
X208189286Y-110589143D02*
X208332143Y-110660571D01*
X208617858Y-110660571D01*
X208760715Y-110589143D01*
X208832143Y-110446286D01*
X208832143Y-110374857D01*
X208760715Y-110232000D01*
X208617858Y-110160571D01*
X208403572Y-110160571D01*
X208260715Y-110089143D01*
X208189286Y-109946286D01*
X208189286Y-109874857D01*
X208260715Y-109732000D01*
X208403572Y-109660571D01*
X208617858Y-109660571D01*
X208760715Y-109732000D01*
X209689287Y-110660571D02*
X209546429Y-110589143D01*
X209475001Y-110517714D01*
X209403572Y-110374857D01*
X209403572Y-109946286D01*
X209475001Y-109803429D01*
X209546429Y-109732000D01*
X209689287Y-109660571D01*
X209903572Y-109660571D01*
X210046429Y-109732000D01*
X210117858Y-109803429D01*
X210189287Y-109946286D01*
X210189287Y-110374857D01*
X210117858Y-110517714D01*
X210046429Y-110589143D01*
X209903572Y-110660571D01*
X209689287Y-110660571D01*
X210832144Y-110660571D02*
X210832144Y-109660571D01*
X210832144Y-109946286D02*
X210903572Y-109803429D01*
X210975001Y-109732000D01*
X211117858Y-109660571D01*
X211260715Y-109660571D01*
X212260715Y-109874857D02*
X212475001Y-109946286D01*
X212546429Y-110017714D01*
X212617858Y-110160571D01*
X212617858Y-110374857D01*
X212546429Y-110517714D01*
X212475001Y-110589143D01*
X212332143Y-110660571D01*
X211760715Y-110660571D01*
X211760715Y-109160571D01*
X212260715Y-109160571D01*
X212403572Y-109232000D01*
X212475001Y-109303429D01*
X212546429Y-109446286D01*
X212546429Y-109589143D01*
X212475001Y-109732000D01*
X212403572Y-109803429D01*
X212260715Y-109874857D01*
X211760715Y-109874857D01*
X213475001Y-110660571D02*
X213332143Y-110589143D01*
X213260715Y-110517714D01*
X213189286Y-110374857D01*
X213189286Y-109946286D01*
X213260715Y-109803429D01*
X213332143Y-109732000D01*
X213475001Y-109660571D01*
X213689286Y-109660571D01*
X213832143Y-109732000D01*
X213903572Y-109803429D01*
X213975001Y-109946286D01*
X213975001Y-110374857D01*
X213903572Y-110517714D01*
X213832143Y-110589143D01*
X213689286Y-110660571D01*
X213475001Y-110660571D01*
X215260715Y-110660571D02*
X215260715Y-109874857D01*
X215189286Y-109732000D01*
X215046429Y-109660571D01*
X214760715Y-109660571D01*
X214617858Y-109732000D01*
X215260715Y-110589143D02*
X215117858Y-110660571D01*
X214760715Y-110660571D01*
X214617858Y-110589143D01*
X214546429Y-110446286D01*
X214546429Y-110303429D01*
X214617858Y-110160571D01*
X214760715Y-110089143D01*
X215117858Y-110089143D01*
X215260715Y-110017714D01*
X215975001Y-110660571D02*
X215975001Y-109660571D01*
X215975001Y-109946286D02*
X216046429Y-109803429D01*
X216117858Y-109732000D01*
X216260715Y-109660571D01*
X216403572Y-109660571D01*
X217546429Y-110660571D02*
X217546429Y-109160571D01*
X217546429Y-110589143D02*
X217403572Y-110660571D01*
X217117858Y-110660571D01*
X216975000Y-110589143D01*
X216903572Y-110517714D01*
X216832143Y-110374857D01*
X216832143Y-109946286D01*
X216903572Y-109803429D01*
X216975000Y-109732000D01*
X217117858Y-109660571D01*
X217403572Y-109660571D01*
X217546429Y-109732000D01*
X219260715Y-109660571D02*
X219617858Y-110660571D01*
X219975000Y-109660571D01*
X221332143Y-110660571D02*
X220475000Y-110660571D01*
X220903572Y-110660571D02*
X220903572Y-109160571D01*
X220760715Y-109374857D01*
X220617857Y-109517714D01*
X220475000Y-109589143D01*
D11*
X213317000Y-117353000D02*
X213317000Y-117378000D01*
X217467000Y-117353000D02*
X217467000Y-117458000D01*
X217467000Y-127503000D02*
X217467000Y-127398000D01*
X213317000Y-127503000D02*
X213317000Y-127398000D01*
X213317000Y-117353000D02*
X217467000Y-117353000D01*
X213317000Y-127503000D02*
X217467000Y-127503000D01*
X213317000Y-117378000D02*
X211942000Y-117378000D01*
D13*
X240530000Y-111672000D02*
X239530000Y-111672000D01*
X239530000Y-113372000D02*
X240530000Y-113372000D01*
X217670000Y-115101000D02*
X216670000Y-115101000D01*
X216670000Y-116801000D02*
X217670000Y-116801000D01*
X203813000Y-130618000D02*
X203813000Y-132018000D01*
X203813000Y-132018000D02*
X206613000Y-132018000D01*
X203813000Y-130618000D02*
X206613000Y-130618000D01*
X203813000Y-128459000D02*
X203813000Y-129859000D01*
X203813000Y-129859000D02*
X206613000Y-129859000D01*
X203813000Y-128459000D02*
X206613000Y-128459000D01*
X203813000Y-126300000D02*
X203813000Y-127700000D01*
X203813000Y-127700000D02*
X206613000Y-127700000D01*
X203813000Y-126300000D02*
X206613000Y-126300000D01*
X203813000Y-123887000D02*
X203813000Y-125287000D01*
X203813000Y-125287000D02*
X206613000Y-125287000D01*
X203813000Y-123887000D02*
X206613000Y-123887000D01*
X203813000Y-121474000D02*
X203813000Y-122874000D01*
X203813000Y-122874000D02*
X206613000Y-122874000D01*
X203813000Y-121474000D02*
X206613000Y-121474000D01*
X203813000Y-118934000D02*
X203813000Y-120334000D01*
X203813000Y-120334000D02*
X206613000Y-120334000D01*
X203813000Y-118934000D02*
X206613000Y-118934000D01*
X203813000Y-116521000D02*
X203813000Y-117921000D01*
X203813000Y-117921000D02*
X206613000Y-117921000D01*
X203813000Y-116521000D02*
X206613000Y-116521000D01*
X203813000Y-113854000D02*
X203813000Y-115254000D01*
X203813000Y-115254000D02*
X206613000Y-115254000D01*
X203813000Y-113854000D02*
X206613000Y-113854000D01*
X232655000Y-117891000D02*
X232655000Y-119091000D01*
X230895000Y-119091000D02*
X230895000Y-117891000D01*
X245837000Y-121149000D02*
X244637000Y-121149000D01*
X244637000Y-119389000D02*
X245837000Y-119389000D01*
X245837000Y-118609000D02*
X244637000Y-118609000D01*
X244637000Y-116849000D02*
X245837000Y-116849000D01*
X245837000Y-115942000D02*
X244637000Y-115942000D01*
X244637000Y-114182000D02*
X245837000Y-114182000D01*
X232292000Y-126965000D02*
X232292000Y-125765000D01*
X234052000Y-125765000D02*
X234052000Y-126965000D01*
X238255269Y-128614033D02*
G75*
G03X233088746Y-128614000I-2583269J-1179967D01*
G01*
X238255269Y-130973967D02*
G75*
G02X233088746Y-130974000I-2583269J1179967D01*
G01*
X230972000Y-129794000D02*
X232172000Y-129794000D01*
X231572000Y-129144000D02*
X231572000Y-130444000D01*
X235112000Y-133105000D02*
X236312000Y-133105000D01*
X236312000Y-134865000D02*
X235112000Y-134865000D01*
X200441000Y-130438000D02*
X201641000Y-130438000D01*
X201641000Y-132198000D02*
X200441000Y-132198000D01*
X200441000Y-128279000D02*
X201641000Y-128279000D01*
X201641000Y-130039000D02*
X200441000Y-130039000D01*
X200441000Y-126120000D02*
X201641000Y-126120000D01*
X201641000Y-127880000D02*
X200441000Y-127880000D01*
X200441000Y-123707000D02*
X201641000Y-123707000D01*
X201641000Y-125467000D02*
X200441000Y-125467000D01*
X200441000Y-121294000D02*
X201641000Y-121294000D01*
X201641000Y-123054000D02*
X200441000Y-123054000D01*
X200314000Y-118754000D02*
X201514000Y-118754000D01*
X201514000Y-120514000D02*
X200314000Y-120514000D01*
X200314000Y-116341000D02*
X201514000Y-116341000D01*
X201514000Y-118101000D02*
X200314000Y-118101000D01*
X200314000Y-113674000D02*
X201514000Y-113674000D01*
X201514000Y-115434000D02*
X200314000Y-115434000D01*
X224162000Y-112268000D02*
X224162000Y-135248000D01*
X224162000Y-135248000D02*
X229482000Y-135248000D01*
X229482000Y-135248000D02*
X229482000Y-109608000D01*
X229482000Y-109608000D02*
X226822000Y-109608000D01*
X226822000Y-109608000D02*
X226822000Y-112268000D01*
X226822000Y-112268000D02*
X224162000Y-112268000D01*
X224162000Y-110998000D02*
X224162000Y-109608000D01*
X224162000Y-109608000D02*
X225552000Y-109608000D01*
D11*
X236304000Y-114265000D02*
X236304000Y-114315000D01*
X240454000Y-114265000D02*
X240454000Y-114410000D01*
X240454000Y-119415000D02*
X240454000Y-119270000D01*
X236304000Y-119415000D02*
X236304000Y-119270000D01*
X236304000Y-114265000D02*
X240454000Y-114265000D01*
X236304000Y-119415000D02*
X240454000Y-119415000D01*
X236304000Y-114315000D02*
X234904000Y-114315000D01*
X212471095Y-115784381D02*
X212471095Y-116593905D01*
X212518714Y-116689143D01*
X212566333Y-116736762D01*
X212661571Y-116784381D01*
X212852048Y-116784381D01*
X212947286Y-116736762D01*
X212994905Y-116689143D01*
X213042524Y-116593905D01*
X213042524Y-115784381D01*
X213423476Y-115784381D02*
X214042524Y-115784381D01*
X213709190Y-116165333D01*
X213852048Y-116165333D01*
X213947286Y-116212952D01*
X213994905Y-116260571D01*
X214042524Y-116355810D01*
X214042524Y-116593905D01*
X213994905Y-116689143D01*
X213947286Y-116736762D01*
X213852048Y-116784381D01*
X213566333Y-116784381D01*
X213471095Y-116736762D01*
X213423476Y-116689143D01*
X239863334Y-111379143D02*
X239815715Y-111426762D01*
X239672858Y-111474381D01*
X239577620Y-111474381D01*
X239434762Y-111426762D01*
X239339524Y-111331524D01*
X239291905Y-111236286D01*
X239244286Y-111045810D01*
X239244286Y-110902952D01*
X239291905Y-110712476D01*
X239339524Y-110617238D01*
X239434762Y-110522000D01*
X239577620Y-110474381D01*
X239672858Y-110474381D01*
X239815715Y-110522000D01*
X239863334Y-110569619D01*
X240244286Y-110569619D02*
X240291905Y-110522000D01*
X240387143Y-110474381D01*
X240625239Y-110474381D01*
X240720477Y-110522000D01*
X240768096Y-110569619D01*
X240815715Y-110664857D01*
X240815715Y-110760095D01*
X240768096Y-110902952D01*
X240196667Y-111474381D01*
X240815715Y-111474381D01*
X217003334Y-114808143D02*
X216955715Y-114855762D01*
X216812858Y-114903381D01*
X216717620Y-114903381D01*
X216574762Y-114855762D01*
X216479524Y-114760524D01*
X216431905Y-114665286D01*
X216384286Y-114474810D01*
X216384286Y-114331952D01*
X216431905Y-114141476D01*
X216479524Y-114046238D01*
X216574762Y-113951000D01*
X216717620Y-113903381D01*
X216812858Y-113903381D01*
X216955715Y-113951000D01*
X217003334Y-113998619D01*
X217336667Y-113903381D02*
X217955715Y-113903381D01*
X217622381Y-114284333D01*
X217765239Y-114284333D01*
X217860477Y-114331952D01*
X217908096Y-114379571D01*
X217955715Y-114474810D01*
X217955715Y-114712905D01*
X217908096Y-114808143D01*
X217860477Y-114855762D01*
X217765239Y-114903381D01*
X217479524Y-114903381D01*
X217384286Y-114855762D01*
X217336667Y-114808143D01*
D14*
X207910953Y-131544190D02*
X207910953Y-131044190D01*
X208030000Y-131044190D01*
X208101429Y-131068000D01*
X208149048Y-131115619D01*
X208172857Y-131163238D01*
X208196667Y-131258476D01*
X208196667Y-131329905D01*
X208172857Y-131425143D01*
X208149048Y-131472762D01*
X208101429Y-131520381D01*
X208030000Y-131544190D01*
X207910953Y-131544190D01*
X208672857Y-131544190D02*
X208387143Y-131544190D01*
X208530000Y-131544190D02*
X208530000Y-131044190D01*
X208482381Y-131115619D01*
X208434762Y-131163238D01*
X208387143Y-131187048D01*
X207910953Y-129258190D02*
X207910953Y-128758190D01*
X208030000Y-128758190D01*
X208101429Y-128782000D01*
X208149048Y-128829619D01*
X208172857Y-128877238D01*
X208196667Y-128972476D01*
X208196667Y-129043905D01*
X208172857Y-129139143D01*
X208149048Y-129186762D01*
X208101429Y-129234381D01*
X208030000Y-129258190D01*
X207910953Y-129258190D01*
X208387143Y-128805810D02*
X208410953Y-128782000D01*
X208458572Y-128758190D01*
X208577619Y-128758190D01*
X208625238Y-128782000D01*
X208649048Y-128805810D01*
X208672857Y-128853429D01*
X208672857Y-128901048D01*
X208649048Y-128972476D01*
X208363334Y-129258190D01*
X208672857Y-129258190D01*
X207783953Y-126972190D02*
X207783953Y-126472190D01*
X207903000Y-126472190D01*
X207974429Y-126496000D01*
X208022048Y-126543619D01*
X208045857Y-126591238D01*
X208069667Y-126686476D01*
X208069667Y-126757905D01*
X208045857Y-126853143D01*
X208022048Y-126900762D01*
X207974429Y-126948381D01*
X207903000Y-126972190D01*
X207783953Y-126972190D01*
X208236334Y-126472190D02*
X208545857Y-126472190D01*
X208379191Y-126662667D01*
X208450619Y-126662667D01*
X208498238Y-126686476D01*
X208522048Y-126710286D01*
X208545857Y-126757905D01*
X208545857Y-126876952D01*
X208522048Y-126924571D01*
X208498238Y-126948381D01*
X208450619Y-126972190D01*
X208307762Y-126972190D01*
X208260143Y-126948381D01*
X208236334Y-126924571D01*
X207910953Y-124686190D02*
X207910953Y-124186190D01*
X208030000Y-124186190D01*
X208101429Y-124210000D01*
X208149048Y-124257619D01*
X208172857Y-124305238D01*
X208196667Y-124400476D01*
X208196667Y-124471905D01*
X208172857Y-124567143D01*
X208149048Y-124614762D01*
X208101429Y-124662381D01*
X208030000Y-124686190D01*
X207910953Y-124686190D01*
X208625238Y-124352857D02*
X208625238Y-124686190D01*
X208506191Y-124162381D02*
X208387143Y-124519524D01*
X208696667Y-124519524D01*
X207783953Y-122273190D02*
X207783953Y-121773190D01*
X207903000Y-121773190D01*
X207974429Y-121797000D01*
X208022048Y-121844619D01*
X208045857Y-121892238D01*
X208069667Y-121987476D01*
X208069667Y-122058905D01*
X208045857Y-122154143D01*
X208022048Y-122201762D01*
X207974429Y-122249381D01*
X207903000Y-122273190D01*
X207783953Y-122273190D01*
X208522048Y-121773190D02*
X208283953Y-121773190D01*
X208260143Y-122011286D01*
X208283953Y-121987476D01*
X208331572Y-121963667D01*
X208450619Y-121963667D01*
X208498238Y-121987476D01*
X208522048Y-122011286D01*
X208545857Y-122058905D01*
X208545857Y-122177952D01*
X208522048Y-122225571D01*
X208498238Y-122249381D01*
X208450619Y-122273190D01*
X208331572Y-122273190D01*
X208283953Y-122249381D01*
X208260143Y-122225571D01*
X207910953Y-120114190D02*
X207910953Y-119614190D01*
X208030000Y-119614190D01*
X208101429Y-119638000D01*
X208149048Y-119685619D01*
X208172857Y-119733238D01*
X208196667Y-119828476D01*
X208196667Y-119899905D01*
X208172857Y-119995143D01*
X208149048Y-120042762D01*
X208101429Y-120090381D01*
X208030000Y-120114190D01*
X207910953Y-120114190D01*
X208625238Y-119614190D02*
X208530000Y-119614190D01*
X208482381Y-119638000D01*
X208458572Y-119661810D01*
X208410953Y-119733238D01*
X208387143Y-119828476D01*
X208387143Y-120018952D01*
X208410953Y-120066571D01*
X208434762Y-120090381D01*
X208482381Y-120114190D01*
X208577619Y-120114190D01*
X208625238Y-120090381D01*
X208649048Y-120066571D01*
X208672857Y-120018952D01*
X208672857Y-119899905D01*
X208649048Y-119852286D01*
X208625238Y-119828476D01*
X208577619Y-119804667D01*
X208482381Y-119804667D01*
X208434762Y-119828476D01*
X208410953Y-119852286D01*
X208387143Y-119899905D01*
X208164953Y-117320190D02*
X208164953Y-116820190D01*
X208284000Y-116820190D01*
X208355429Y-116844000D01*
X208403048Y-116891619D01*
X208426857Y-116939238D01*
X208450667Y-117034476D01*
X208450667Y-117105905D01*
X208426857Y-117201143D01*
X208403048Y-117248762D01*
X208355429Y-117296381D01*
X208284000Y-117320190D01*
X208164953Y-117320190D01*
X208617334Y-116820190D02*
X208950667Y-116820190D01*
X208736381Y-117320190D01*
X205624953Y-113510190D02*
X205624953Y-113010190D01*
X205744000Y-113010190D01*
X205815429Y-113034000D01*
X205863048Y-113081619D01*
X205886857Y-113129238D01*
X205910667Y-113224476D01*
X205910667Y-113295905D01*
X205886857Y-113391143D01*
X205863048Y-113438762D01*
X205815429Y-113486381D01*
X205744000Y-113510190D01*
X205624953Y-113510190D01*
X206196381Y-113224476D02*
X206148762Y-113200667D01*
X206124953Y-113176857D01*
X206101143Y-113129238D01*
X206101143Y-113105429D01*
X206124953Y-113057810D01*
X206148762Y-113034000D01*
X206196381Y-113010190D01*
X206291619Y-113010190D01*
X206339238Y-113034000D01*
X206363048Y-113057810D01*
X206386857Y-113105429D01*
X206386857Y-113129238D01*
X206363048Y-113176857D01*
X206339238Y-113200667D01*
X206291619Y-113224476D01*
X206196381Y-113224476D01*
X206148762Y-113248286D01*
X206124953Y-113272095D01*
X206101143Y-113319714D01*
X206101143Y-113414952D01*
X206124953Y-113462571D01*
X206148762Y-113486381D01*
X206196381Y-113510190D01*
X206291619Y-113510190D01*
X206339238Y-113486381D01*
X206363048Y-113462571D01*
X206386857Y-113414952D01*
X206386857Y-113319714D01*
X206363048Y-113272095D01*
X206339238Y-113248286D01*
X206291619Y-113224476D01*
X230294667Y-118717190D02*
X230128000Y-118479095D01*
X230008953Y-118717190D02*
X230008953Y-118217190D01*
X230199429Y-118217190D01*
X230247048Y-118241000D01*
X230270857Y-118264810D01*
X230294667Y-118312429D01*
X230294667Y-118383857D01*
X230270857Y-118431476D01*
X230247048Y-118455286D01*
X230199429Y-118479095D01*
X230008953Y-118479095D01*
X230770857Y-118717190D02*
X230485143Y-118717190D01*
X230628000Y-118717190D02*
X230628000Y-118217190D01*
X230580381Y-118288619D01*
X230532762Y-118336238D01*
X230485143Y-118360048D01*
X245153667Y-122273190D02*
X244987000Y-122035095D01*
X244867953Y-122273190D02*
X244867953Y-121773190D01*
X245058429Y-121773190D01*
X245106048Y-121797000D01*
X245129857Y-121820810D01*
X245153667Y-121868429D01*
X245153667Y-121939857D01*
X245129857Y-121987476D01*
X245106048Y-122011286D01*
X245058429Y-122035095D01*
X244867953Y-122035095D01*
X245344143Y-121820810D02*
X245367953Y-121797000D01*
X245415572Y-121773190D01*
X245534619Y-121773190D01*
X245582238Y-121797000D01*
X245606048Y-121820810D01*
X245629857Y-121868429D01*
X245629857Y-121916048D01*
X245606048Y-121987476D01*
X245320334Y-122273190D01*
X245629857Y-122273190D01*
X245153667Y-119352190D02*
X244987000Y-119114095D01*
X244867953Y-119352190D02*
X244867953Y-118852190D01*
X245058429Y-118852190D01*
X245106048Y-118876000D01*
X245129857Y-118899810D01*
X245153667Y-118947429D01*
X245153667Y-119018857D01*
X245129857Y-119066476D01*
X245106048Y-119090286D01*
X245058429Y-119114095D01*
X244867953Y-119114095D01*
X245320334Y-118852190D02*
X245629857Y-118852190D01*
X245463191Y-119042667D01*
X245534619Y-119042667D01*
X245582238Y-119066476D01*
X245606048Y-119090286D01*
X245629857Y-119137905D01*
X245629857Y-119256952D01*
X245606048Y-119304571D01*
X245582238Y-119328381D01*
X245534619Y-119352190D01*
X245391762Y-119352190D01*
X245344143Y-119328381D01*
X245320334Y-119304571D01*
X245280667Y-116685190D02*
X245114000Y-116447095D01*
X244994953Y-116685190D02*
X244994953Y-116185190D01*
X245185429Y-116185190D01*
X245233048Y-116209000D01*
X245256857Y-116232810D01*
X245280667Y-116280429D01*
X245280667Y-116351857D01*
X245256857Y-116399476D01*
X245233048Y-116423286D01*
X245185429Y-116447095D01*
X244994953Y-116447095D01*
X245709238Y-116351857D02*
X245709238Y-116685190D01*
X245590191Y-116161381D02*
X245471143Y-116518524D01*
X245780667Y-116518524D01*
X235048190Y-126448333D02*
X234810095Y-126615000D01*
X235048190Y-126734047D02*
X234548190Y-126734047D01*
X234548190Y-126543571D01*
X234572000Y-126495952D01*
X234595810Y-126472143D01*
X234643429Y-126448333D01*
X234714857Y-126448333D01*
X234762476Y-126472143D01*
X234786286Y-126495952D01*
X234810095Y-126543571D01*
X234810095Y-126734047D01*
X234548190Y-125995952D02*
X234548190Y-126234047D01*
X234786286Y-126257857D01*
X234762476Y-126234047D01*
X234738667Y-126186428D01*
X234738667Y-126067381D01*
X234762476Y-126019762D01*
X234786286Y-125995952D01*
X234833905Y-125972143D01*
X234952952Y-125972143D01*
X235000571Y-125995952D01*
X235024381Y-126019762D01*
X235048190Y-126067381D01*
X235048190Y-126186428D01*
X235024381Y-126234047D01*
X235000571Y-126257857D01*
X240454667Y-131925190D02*
X240288000Y-131687095D01*
X240168953Y-131925190D02*
X240168953Y-131425190D01*
X240359429Y-131425190D01*
X240407048Y-131449000D01*
X240430857Y-131472810D01*
X240454667Y-131520429D01*
X240454667Y-131591857D01*
X240430857Y-131639476D01*
X240407048Y-131663286D01*
X240359429Y-131687095D01*
X240168953Y-131687095D01*
X240883238Y-131425190D02*
X240788000Y-131425190D01*
X240740381Y-131449000D01*
X240716572Y-131472810D01*
X240668953Y-131544238D01*
X240645143Y-131639476D01*
X240645143Y-131829952D01*
X240668953Y-131877571D01*
X240692762Y-131901381D01*
X240740381Y-131925190D01*
X240835619Y-131925190D01*
X240883238Y-131901381D01*
X240907048Y-131877571D01*
X240930857Y-131829952D01*
X240930857Y-131710905D01*
X240907048Y-131663286D01*
X240883238Y-131639476D01*
X240835619Y-131615667D01*
X240740381Y-131615667D01*
X240692762Y-131639476D01*
X240668953Y-131663286D01*
X240645143Y-131710905D01*
X235628667Y-135861190D02*
X235462000Y-135623095D01*
X235342953Y-135861190D02*
X235342953Y-135361190D01*
X235533429Y-135361190D01*
X235581048Y-135385000D01*
X235604857Y-135408810D01*
X235628667Y-135456429D01*
X235628667Y-135527857D01*
X235604857Y-135575476D01*
X235581048Y-135599286D01*
X235533429Y-135623095D01*
X235342953Y-135623095D01*
X235795334Y-135361190D02*
X236128667Y-135361190D01*
X235914381Y-135861190D01*
X198981190Y-131401333D02*
X198743095Y-131568000D01*
X198981190Y-131687047D02*
X198481190Y-131687047D01*
X198481190Y-131496571D01*
X198505000Y-131448952D01*
X198528810Y-131425143D01*
X198576429Y-131401333D01*
X198647857Y-131401333D01*
X198695476Y-131425143D01*
X198719286Y-131448952D01*
X198743095Y-131496571D01*
X198743095Y-131687047D01*
X198695476Y-131115619D02*
X198671667Y-131163238D01*
X198647857Y-131187047D01*
X198600238Y-131210857D01*
X198576429Y-131210857D01*
X198528810Y-131187047D01*
X198505000Y-131163238D01*
X198481190Y-131115619D01*
X198481190Y-131020381D01*
X198505000Y-130972762D01*
X198528810Y-130948952D01*
X198576429Y-130925143D01*
X198600238Y-130925143D01*
X198647857Y-130948952D01*
X198671667Y-130972762D01*
X198695476Y-131020381D01*
X198695476Y-131115619D01*
X198719286Y-131163238D01*
X198743095Y-131187047D01*
X198790714Y-131210857D01*
X198885952Y-131210857D01*
X198933571Y-131187047D01*
X198957381Y-131163238D01*
X198981190Y-131115619D01*
X198981190Y-131020381D01*
X198957381Y-130972762D01*
X198933571Y-130948952D01*
X198885952Y-130925143D01*
X198790714Y-130925143D01*
X198743095Y-130948952D01*
X198719286Y-130972762D01*
X198695476Y-131020381D01*
X198981190Y-129242333D02*
X198743095Y-129409000D01*
X198981190Y-129528047D02*
X198481190Y-129528047D01*
X198481190Y-129337571D01*
X198505000Y-129289952D01*
X198528810Y-129266143D01*
X198576429Y-129242333D01*
X198647857Y-129242333D01*
X198695476Y-129266143D01*
X198719286Y-129289952D01*
X198743095Y-129337571D01*
X198743095Y-129528047D01*
X198981190Y-129004238D02*
X198981190Y-128909000D01*
X198957381Y-128861381D01*
X198933571Y-128837571D01*
X198862143Y-128789952D01*
X198766905Y-128766143D01*
X198576429Y-128766143D01*
X198528810Y-128789952D01*
X198505000Y-128813762D01*
X198481190Y-128861381D01*
X198481190Y-128956619D01*
X198505000Y-129004238D01*
X198528810Y-129028047D01*
X198576429Y-129051857D01*
X198695476Y-129051857D01*
X198743095Y-129028047D01*
X198766905Y-129004238D01*
X198790714Y-128956619D01*
X198790714Y-128861381D01*
X198766905Y-128813762D01*
X198743095Y-128789952D01*
X198695476Y-128766143D01*
X198981190Y-127448428D02*
X198743095Y-127615095D01*
X198981190Y-127734142D02*
X198481190Y-127734142D01*
X198481190Y-127543666D01*
X198505000Y-127496047D01*
X198528810Y-127472238D01*
X198576429Y-127448428D01*
X198647857Y-127448428D01*
X198695476Y-127472238D01*
X198719286Y-127496047D01*
X198743095Y-127543666D01*
X198743095Y-127734142D01*
X198981190Y-126972238D02*
X198981190Y-127257952D01*
X198981190Y-127115095D02*
X198481190Y-127115095D01*
X198552619Y-127162714D01*
X198600238Y-127210333D01*
X198624048Y-127257952D01*
X198481190Y-126662714D02*
X198481190Y-126615095D01*
X198505000Y-126567476D01*
X198528810Y-126543667D01*
X198576429Y-126519857D01*
X198671667Y-126496048D01*
X198790714Y-126496048D01*
X198885952Y-126519857D01*
X198933571Y-126543667D01*
X198957381Y-126567476D01*
X198981190Y-126615095D01*
X198981190Y-126662714D01*
X198957381Y-126710333D01*
X198933571Y-126734143D01*
X198885952Y-126757952D01*
X198790714Y-126781762D01*
X198671667Y-126781762D01*
X198576429Y-126757952D01*
X198528810Y-126734143D01*
X198505000Y-126710333D01*
X198481190Y-126662714D01*
X198981190Y-124908428D02*
X198743095Y-125075095D01*
X198981190Y-125194142D02*
X198481190Y-125194142D01*
X198481190Y-125003666D01*
X198505000Y-124956047D01*
X198528810Y-124932238D01*
X198576429Y-124908428D01*
X198647857Y-124908428D01*
X198695476Y-124932238D01*
X198719286Y-124956047D01*
X198743095Y-125003666D01*
X198743095Y-125194142D01*
X198981190Y-124432238D02*
X198981190Y-124717952D01*
X198981190Y-124575095D02*
X198481190Y-124575095D01*
X198552619Y-124622714D01*
X198600238Y-124670333D01*
X198624048Y-124717952D01*
X198981190Y-123956048D02*
X198981190Y-124241762D01*
X198981190Y-124098905D02*
X198481190Y-124098905D01*
X198552619Y-124146524D01*
X198600238Y-124194143D01*
X198624048Y-124241762D01*
X198981190Y-122495428D02*
X198743095Y-122662095D01*
X198981190Y-122781142D02*
X198481190Y-122781142D01*
X198481190Y-122590666D01*
X198505000Y-122543047D01*
X198528810Y-122519238D01*
X198576429Y-122495428D01*
X198647857Y-122495428D01*
X198695476Y-122519238D01*
X198719286Y-122543047D01*
X198743095Y-122590666D01*
X198743095Y-122781142D01*
X198981190Y-122019238D02*
X198981190Y-122304952D01*
X198981190Y-122162095D02*
X198481190Y-122162095D01*
X198552619Y-122209714D01*
X198600238Y-122257333D01*
X198624048Y-122304952D01*
X198528810Y-121828762D02*
X198505000Y-121804952D01*
X198481190Y-121757333D01*
X198481190Y-121638286D01*
X198505000Y-121590667D01*
X198528810Y-121566857D01*
X198576429Y-121543048D01*
X198624048Y-121543048D01*
X198695476Y-121566857D01*
X198981190Y-121852571D01*
X198981190Y-121543048D01*
X198981190Y-119955428D02*
X198743095Y-120122095D01*
X198981190Y-120241142D02*
X198481190Y-120241142D01*
X198481190Y-120050666D01*
X198505000Y-120003047D01*
X198528810Y-119979238D01*
X198576429Y-119955428D01*
X198647857Y-119955428D01*
X198695476Y-119979238D01*
X198719286Y-120003047D01*
X198743095Y-120050666D01*
X198743095Y-120241142D01*
X198981190Y-119479238D02*
X198981190Y-119764952D01*
X198981190Y-119622095D02*
X198481190Y-119622095D01*
X198552619Y-119669714D01*
X198600238Y-119717333D01*
X198624048Y-119764952D01*
X198481190Y-119312571D02*
X198481190Y-119003048D01*
X198671667Y-119169714D01*
X198671667Y-119098286D01*
X198695476Y-119050667D01*
X198719286Y-119026857D01*
X198766905Y-119003048D01*
X198885952Y-119003048D01*
X198933571Y-119026857D01*
X198957381Y-119050667D01*
X198981190Y-119098286D01*
X198981190Y-119241143D01*
X198957381Y-119288762D01*
X198933571Y-119312571D01*
X198981190Y-117669428D02*
X198743095Y-117836095D01*
X198981190Y-117955142D02*
X198481190Y-117955142D01*
X198481190Y-117764666D01*
X198505000Y-117717047D01*
X198528810Y-117693238D01*
X198576429Y-117669428D01*
X198647857Y-117669428D01*
X198695476Y-117693238D01*
X198719286Y-117717047D01*
X198743095Y-117764666D01*
X198743095Y-117955142D01*
X198981190Y-117193238D02*
X198981190Y-117478952D01*
X198981190Y-117336095D02*
X198481190Y-117336095D01*
X198552619Y-117383714D01*
X198600238Y-117431333D01*
X198624048Y-117478952D01*
X198647857Y-116764667D02*
X198981190Y-116764667D01*
X198457381Y-116883714D02*
X198814524Y-117002762D01*
X198814524Y-116693238D01*
X198981190Y-114875428D02*
X198743095Y-115042095D01*
X198981190Y-115161142D02*
X198481190Y-115161142D01*
X198481190Y-114970666D01*
X198505000Y-114923047D01*
X198528810Y-114899238D01*
X198576429Y-114875428D01*
X198647857Y-114875428D01*
X198695476Y-114899238D01*
X198719286Y-114923047D01*
X198743095Y-114970666D01*
X198743095Y-115161142D01*
X198981190Y-114399238D02*
X198981190Y-114684952D01*
X198981190Y-114542095D02*
X198481190Y-114542095D01*
X198552619Y-114589714D01*
X198600238Y-114637333D01*
X198624048Y-114684952D01*
X198481190Y-113946857D02*
X198481190Y-114184952D01*
X198719286Y-114208762D01*
X198695476Y-114184952D01*
X198671667Y-114137333D01*
X198671667Y-114018286D01*
X198695476Y-113970667D01*
X198719286Y-113946857D01*
X198766905Y-113923048D01*
X198885952Y-113923048D01*
X198933571Y-113946857D01*
X198957381Y-113970667D01*
X198981190Y-114018286D01*
X198981190Y-114137333D01*
X198957381Y-114184952D01*
X198933571Y-114208762D01*
D11*
X226060095Y-108060381D02*
X226060095Y-108869905D01*
X226107714Y-108965143D01*
X226155333Y-109012762D01*
X226250571Y-109060381D01*
X226441048Y-109060381D01*
X226536286Y-109012762D01*
X226583905Y-108965143D01*
X226631524Y-108869905D01*
X226631524Y-108060381D01*
X227631524Y-109060381D02*
X227060095Y-109060381D01*
X227345809Y-109060381D02*
X227345809Y-108060381D01*
X227250571Y-108203238D01*
X227155333Y-108298476D01*
X227060095Y-108346095D01*
X236093095Y-112736381D02*
X236093095Y-113545905D01*
X236140714Y-113641143D01*
X236188333Y-113688762D01*
X236283571Y-113736381D01*
X236474048Y-113736381D01*
X236569286Y-113688762D01*
X236616905Y-113641143D01*
X236664524Y-113545905D01*
X236664524Y-112736381D01*
X237093095Y-112831619D02*
X237140714Y-112784000D01*
X237235952Y-112736381D01*
X237474048Y-112736381D01*
X237569286Y-112784000D01*
X237616905Y-112831619D01*
X237664524Y-112926857D01*
X237664524Y-113022095D01*
X237616905Y-113164952D01*
X237045476Y-113736381D01*
X237664524Y-113736381D01*
M02*
