M48
;DRILL file {KiCad 4.0.6} date 11/27/17 20:47:25
;FORMAT={-:-/ absolute / inch / decimal}
FMAT,2
INCH,TZ
T1C0.013
T2C0.031
T3C0.039
%
G90
G05
M72
T1
X8.45Y-4.575
X8.495Y-5.055
X8.645Y-4.795
X8.645Y-4.845
X8.655Y-4.63
X8.71Y-4.745
X8.71Y-4.92
X9.15Y-4.745
X9.185Y-4.58
X9.185Y-4.7
X9.215Y-4.525
X9.215Y-4.66
X9.275Y-4.785
X9.515Y-5.
X9.56Y-4.525
T2
X9.18Y-5.11
X9.3769Y-5.11
T3
X8.88Y-4.37
X8.88Y-4.47
X8.88Y-4.57
X8.88Y-4.67
X8.88Y-4.97
X8.88Y-5.07
X8.88Y-5.17
X8.88Y-5.27
X8.98Y-4.47
X8.98Y-4.57
X8.98Y-4.67
X8.98Y-4.77
X8.98Y-4.87
X8.98Y-4.97
X8.98Y-5.07
X8.98Y-5.17
T0
M30
