G04 #@! TF.FileFunction,Soldermask,Top*
%FSLAX46Y46*%
G04 Gerber Fmt 4.6, Leading zero omitted, Abs format (unit mm)*
G04 Created by KiCad (PCBNEW 4.0.6) date 11/27/17 20:56:59*
%MOMM*%
%LPD*%
G01*
G04 APERTURE LIST*
%ADD10C,0.100000*%
%ADD11C,0.150000*%
%ADD12R,1.900000X1.000000*%
%ADD13R,1.400000X1.650000*%
%ADD14R,1.600000X1.600000*%
%ADD15R,1.700000X1.100000*%
%ADD16R,1.100000X1.700000*%
%ADD17R,2.000000X2.000000*%
%ADD18C,2.000000*%
%ADD19R,2.100000X2.100000*%
%ADD20O,2.100000X2.100000*%
%ADD21R,1.950000X1.000000*%
%ADD22R,1.575000X1.575000*%
%ADD23C,1.085800*%
G04 APERTURE END LIST*
D10*
D11*
X197866000Y-107061000D02*
X249682000Y-107061000D01*
X197866000Y-107823000D02*
X197866000Y-107061000D01*
X249682000Y-137668000D02*
X249682000Y-107061000D01*
X197866000Y-137668000D02*
X249682000Y-137668000D01*
X197866000Y-107823000D02*
X197866000Y-137668000D01*
D12*
X212692000Y-117983000D03*
X212692000Y-119253000D03*
X212692000Y-120523000D03*
X212692000Y-121793000D03*
X212692000Y-123063000D03*
X212692000Y-124333000D03*
X212692000Y-125603000D03*
X212692000Y-126873000D03*
X218092000Y-126873000D03*
X218092000Y-125603000D03*
X218092000Y-124333000D03*
X218092000Y-123063000D03*
X218092000Y-121793000D03*
X218092000Y-120523000D03*
X218092000Y-119253000D03*
X218092000Y-117983000D03*
D13*
X239030000Y-112522000D03*
X241030000Y-112522000D03*
X216170000Y-115951000D03*
X218170000Y-115951000D03*
D14*
X206713000Y-131318000D03*
X204513000Y-131318000D03*
X206713000Y-129159000D03*
X204513000Y-129159000D03*
X206713000Y-127000000D03*
X204513000Y-127000000D03*
X206713000Y-124587000D03*
X204513000Y-124587000D03*
X206713000Y-122174000D03*
X204513000Y-122174000D03*
X206713000Y-119634000D03*
X204513000Y-119634000D03*
X206713000Y-117221000D03*
X204513000Y-117221000D03*
X206713000Y-114554000D03*
X204513000Y-114554000D03*
D15*
X231775000Y-119441000D03*
X231775000Y-117541000D03*
D16*
X244287000Y-120269000D03*
X246187000Y-120269000D03*
X244287000Y-117729000D03*
X246187000Y-117729000D03*
X244287000Y-115062000D03*
X246187000Y-115062000D03*
D15*
X233172000Y-125415000D03*
X233172000Y-127315000D03*
D17*
X233172000Y-129794000D03*
D18*
X238172000Y-129794000D03*
D16*
X236662000Y-133985000D03*
X234762000Y-133985000D03*
X201991000Y-131318000D03*
X200091000Y-131318000D03*
X201991000Y-129159000D03*
X200091000Y-129159000D03*
X201991000Y-127000000D03*
X200091000Y-127000000D03*
X201991000Y-124587000D03*
X200091000Y-124587000D03*
X201991000Y-122174000D03*
X200091000Y-122174000D03*
X201864000Y-119634000D03*
X199964000Y-119634000D03*
X201864000Y-117221000D03*
X199964000Y-117221000D03*
X201864000Y-114554000D03*
X199964000Y-114554000D03*
D19*
X225552000Y-110998000D03*
D20*
X225552000Y-113538000D03*
X228092000Y-113538000D03*
X225552000Y-116078000D03*
X228092000Y-116078000D03*
X225552000Y-118618000D03*
X228092000Y-118618000D03*
X228092000Y-121158000D03*
X228092000Y-123698000D03*
X225552000Y-126238000D03*
X228092000Y-126238000D03*
X225552000Y-128778000D03*
X228092000Y-128778000D03*
X225552000Y-131318000D03*
X228092000Y-131318000D03*
X225552000Y-133858000D03*
D21*
X235679000Y-114935000D03*
X235679000Y-116205000D03*
X235679000Y-117475000D03*
X235679000Y-118745000D03*
X241079000Y-118745000D03*
X241079000Y-117475000D03*
X241079000Y-116205000D03*
X241079000Y-114935000D03*
D22*
X238966500Y-117427500D03*
X238966500Y-116252500D03*
X237791500Y-117427500D03*
X237791500Y-116252500D03*
D23*
X219583000Y-123063000D03*
X235585000Y-121539000D03*
X241681000Y-127000000D03*
X214630000Y-116205000D03*
X219583000Y-121793000D03*
X215773000Y-128397000D03*
X219837000Y-117602000D03*
X221234000Y-124968000D03*
X232410000Y-120523000D03*
X242824000Y-114935000D03*
X221234000Y-120523000D03*
X233299000Y-119380000D03*
X233299000Y-116332000D03*
X234061000Y-114935000D03*
X234061000Y-118364000D03*
M02*
